<svg height="1358" width="720" xmlns="http://www.w3.org/2000/svg">
<rect height="1358" fill="#555" width="720"></rect>
<text fill="#7f7" font-family="Courier New" font-size="12" xml:space="preserve">
<tspan x="10" y="26">12 megabytes installed</tspan>
<tspan x="10" y="42"></tspan>
<tspan x="10" y="58">node_modules</tspan>
<tspan x="10" y="74">└─┬ hippie@0.5.1 </tspan>
<tspan x="10" y="90">  ├── assertion-error@1.0.2 </tspan>
<tspan x="10" y="106">  ├─┬ deep-eql@0.1.3 </tspan>
<tspan x="10" y="122">  │ └── type-detect@0.1.1 </tspan>
<tspan x="10" y="138">  ├── es6-promise@3.3.1 </tspan>
<tspan x="10" y="154">  ├── pathval@0.0.1 </tspan>
<tspan x="10" y="170">  ├── qs@0.6.6 </tspan>
<tspan x="10" y="186">  └─┬ request@2.74.0 </tspan>
<tspan x="10" y="202">    ├── aws-sign2@0.6.0 </tspan>
<tspan x="10" y="218">    ├── aws4@1.6.0 </tspan>
<tspan x="10" y="234">    ├─┬ bl@1.1.2 </tspan>
<tspan x="10" y="250">    │ └─┬ readable-stream@2.0.6 </tspan>
<tspan x="10" y="266">    │   ├── core-util-is@1.0.2 </tspan>
<tspan x="10" y="282">    │   ├── inherits@2.0.3 </tspan>
<tspan x="10" y="298">    │   ├── isarray@1.0.0 </tspan>
<tspan x="10" y="314">    │   ├── process-nextick-args@1.0.7 </tspan>
<tspan x="10" y="330">    │   ├── string_decoder@0.10.31 </tspan>
<tspan x="10" y="346">    │   └── util-deprecate@1.0.2 </tspan>
<tspan x="10" y="362">    ├── caseless@0.11.0 </tspan>
<tspan x="10" y="378">    ├─┬ combined-stream@1.0.5 </tspan>
<tspan x="10" y="394">    │ └── delayed-stream@1.0.0 </tspan>
<tspan x="10" y="410">    ├── extend@3.0.0 </tspan>
<tspan x="10" y="426">    ├── forever-agent@0.6.1 </tspan>
<tspan x="10" y="442">    ├─┬ form-data@1.0.1 </tspan>
<tspan x="10" y="458">    │ └─┬ async@2.3.0 </tspan>
<tspan x="10" y="474">    │   └── lodash@4.17.4 </tspan>
<tspan x="10" y="490">    ├─┬ har-validator@2.0.6 </tspan>
<tspan x="10" y="506">    │ ├─┬ chalk@1.1.3 </tspan>
<tspan x="10" y="522">    │ │ ├── ansi-styles@2.2.1 </tspan>
<tspan x="10" y="538">    │ │ ├── escape-string-regexp@1.0.5 </tspan>
<tspan x="10" y="554">    │ │ ├─┬ has-ansi@2.0.0 </tspan>
<tspan x="10" y="570">    │ │ │ └── ansi-regex@2.1.1 </tspan>
<tspan x="10" y="586">    │ │ ├── strip-ansi@3.0.1 </tspan>
<tspan x="10" y="602">    │ │ └── supports-color@2.0.0 </tspan>
<tspan x="10" y="618">    │ ├─┬ commander@2.9.0 </tspan>
<tspan x="10" y="634">    │ │ └── graceful-readlink@1.0.1 </tspan>
<tspan x="10" y="650">    │ ├─┬ is-my-json-valid@2.16.0 </tspan>
<tspan x="10" y="666">    │ │ ├── generate-function@2.0.0 </tspan>
<tspan x="10" y="682">    │ │ ├─┬ generate-object-property@1.2.0 </tspan>
<tspan x="10" y="698">    │ │ │ └── is-property@1.0.2 </tspan>
<tspan x="10" y="714">    │ │ ├── jsonpointer@4.0.1 </tspan>
<tspan x="10" y="730">    │ │ └── xtend@4.0.1 </tspan>
<tspan x="10" y="746">    │ └─┬ pinkie-promise@2.0.1 </tspan>
<tspan x="10" y="762">    │   └── pinkie@2.0.4 </tspan>
<tspan x="10" y="778">    ├─┬ hawk@3.1.3 </tspan>
<tspan x="10" y="794">    │ ├── boom@2.10.1 </tspan>
<tspan x="10" y="810">    │ ├── cryptiles@2.0.5 </tspan>
<tspan x="10" y="826">    │ ├── hoek@2.16.3 </tspan>
<tspan x="10" y="842">    │ └── sntp@1.0.9 </tspan>
<tspan x="10" y="858">    ├─┬ http-signature@1.1.1 </tspan>
<tspan x="10" y="874">    │ ├── assert-plus@0.2.0 </tspan>
<tspan x="10" y="890">    │ ├─┬ jsprim@1.4.0 </tspan>
<tspan x="10" y="906">    │ │ ├── assert-plus@1.0.0 </tspan>
<tspan x="10" y="922">    │ │ ├── extsprintf@1.0.2 </tspan>
<tspan x="10" y="938">    │ │ ├── json-schema@0.2.3 </tspan>
<tspan x="10" y="954">    │ │ └── verror@1.3.6 </tspan>
<tspan x="10" y="970">    │ └─┬ sshpk@1.13.0 </tspan>
<tspan x="10" y="986">    │   ├── asn1@0.2.3 </tspan>
<tspan x="10" y="1002">    │   ├── assert-plus@1.0.0 </tspan>
<tspan x="10" y="1018">    │   ├── bcrypt-pbkdf@1.0.1 </tspan>
<tspan x="10" y="1034">    │   ├─┬ dashdash@1.14.1 </tspan>
<tspan x="10" y="1050">    │   │ └── assert-plus@1.0.0 </tspan>
<tspan x="10" y="1066">    │   ├── ecc-jsbn@0.1.1 </tspan>
<tspan x="10" y="1082">    │   ├─┬ getpass@0.1.6 </tspan>
<tspan x="10" y="1098">    │   │ └── assert-plus@1.0.0 </tspan>
<tspan x="10" y="1114">    │   ├── jodid25519@1.0.2 </tspan>
<tspan x="10" y="1130">    │   ├── jsbn@0.1.1 </tspan>
<tspan x="10" y="1146">    │   └── tweetnacl@0.14.5 </tspan>
<tspan x="10" y="1162">    ├── is-typedarray@1.0.0 </tspan>
<tspan x="10" y="1178">    ├── isstream@0.1.2 </tspan>
<tspan x="10" y="1194">    ├── json-stringify-safe@5.0.1 </tspan>
<tspan x="10" y="1210">    ├─┬ mime-types@2.1.15 </tspan>
<tspan x="10" y="1226">    │ └── mime-db@1.27.0 </tspan>
<tspan x="10" y="1242">    ├── node-uuid@1.4.8 </tspan>
<tspan x="10" y="1258">    ├── oauth-sign@0.8.2 </tspan>
<tspan x="10" y="1274">    ├── qs@6.2.3 </tspan>
<tspan x="10" y="1290">    ├── stringstream@0.0.5 </tspan>
<tspan x="10" y="1306">    ├─┬ tough-cookie@2.3.2 </tspan>
<tspan x="10" y="1322">    │ └── punycode@1.4.1 </tspan>
<tspan x="10" y="1338">    └── tunnel-agent@0.4.3</tspan>
</text>
</svg>
